HIERARCHY
ROOT Hips
{
 OFFSET 0.000000 0.000000 0.000000
 CHANNELS 6 Xposition Yposition Zposition Yrotation Xrotation Zrotation
 JOINT Chest
 {
  OFFSET 0.000000 9.585900 0.002600
  CHANNELS 3 Yrotation Xrotation Zrotation
  JOINT Chest2
  {
   OFFSET 0.000000 9.601200 -0.005300
   CHANNELS 3 Yrotation Xrotation Zrotation
   JOINT Chest3
   {
    OFFSET 0.000000 9.561800 0.000000
    CHANNELS 3 Yrotation Xrotation Zrotation
    JOINT Chest4
    {
     OFFSET 0.000000 9.552100 0.000000
     CHANNELS 3 Yrotation Xrotation Zrotation
     JOINT Neck
     {
      OFFSET 0.000000 14.453000 0.000000
      CHANNELS 3 Yrotation Xrotation Zrotation
      JOINT Head
      {
       OFFSET 0.000000 8.936500 -0.011300
       CHANNELS 3 Yrotation Xrotation Zrotation
       End Site
       {
        OFFSET 0.000000 17.073600 -0.006000
       }
      }
     }
     JOINT RightCollar
     {
      OFFSET -2.921100 9.558500 0.000000
      CHANNELS 3 Yrotation Xrotation Zrotation
      JOINT RightShoulder
      {
       OFFSET -13.519700 0.000000 0.000000
       CHANNELS 3 Yrotation Xrotation Zrotation
       JOINT RightElbow
       {
        OFFSET 0.000000 -29.696600 0.000000
        CHANNELS 3 Yrotation Xrotation Zrotation
        JOINT RightWrist
        {
         OFFSET 0.000000 -24.004700 0.000000
         CHANNELS 3 Yrotation Xrotation Zrotation
         End Site
         {
          OFFSET 0.000000 -17.728500 0.000000
         }
        }
       }
      }
     }
     JOINT LeftCollar
     {
      OFFSET 2.921100 9.558500 0.000000
      CHANNELS 3 Yrotation Xrotation Zrotation
      JOINT LeftShoulder
      {
       OFFSET 13.519700 0.000000 0.000000
       CHANNELS 3 Yrotation Xrotation Zrotation
       JOINT LeftElbow
       {
        OFFSET 0.000000 -29.696600 0.000000
        CHANNELS 3 Yrotation Xrotation Zrotation
        JOINT LeftWrist
        {
         OFFSET 0.000000 -24.004700 0.000000
         CHANNELS 3 Yrotation Xrotation Zrotation
         End Site
         {
          OFFSET 0.000000 -17.728500 0.000000
         }
        }
       }
      }
     }
    }
   }
  }
 }
 JOINT RightHip
 {
  OFFSET -7.771700 -0.012900 -0.001300
  CHANNELS 3 Yrotation Xrotation Zrotation
  JOINT RightKnee
  {
   OFFSET 0.000000 -40.869800 0.001200
   CHANNELS 3 Yrotation Xrotation Zrotation
   JOINT RightAnkle
   {
    OFFSET 0.000000 -39.717900 0.002100
    CHANNELS 3 Yrotation Xrotation Zrotation
    JOINT RightToe
    {
     OFFSET 0.000000 -4.965400 11.033500
     CHANNELS 3 Yrotation Xrotation Zrotation
     End Site
     {
      OFFSET 0.000000 -1.423100 5.872300
     }
    }
   }
  }
 }
 JOINT LeftHip
 {
  OFFSET 7.771700 -0.012900 -0.001300
  CHANNELS 3 Yrotation Xrotation Zrotation
  JOINT LeftKnee
  {
   OFFSET 0.000000 -40.869800 0.001200
   CHANNELS 3 Yrotation Xrotation Zrotation
   JOINT LeftAnkle
   {
    OFFSET 0.000000 -39.717900 0.002100
    CHANNELS 3 Yrotation Xrotation Zrotation
    JOINT LeftToe
    {
     OFFSET 0.000000 -4.965400 11.033500
     CHANNELS 3 Yrotation Xrotation Zrotation
     End Site
     {
      OFFSET 0.000000 -1.423100 5.872300
     }
    }
   }
  }
 }
}
MOTION
Frames: 6
Frame Time: 0.008333
0.000000 85.388000 0.000000 0.000000 -5.767877 0.000000 0.000000 11.653817 0.000000 0.000000 -5.885947 0.000000 0.000000 -0.000000 0.000000 0.000000 -0.000000 0.000000 0.000000 12.528835 0.000000 0.000000 0.711642 0.000000 0.000000 -0.000000 0.000000 0.000000 0.000000 -90.000000 0.000000 -2.309062 0.000000 0.000000 2.309062 0.000000 0.000000 -0.000000 0.000000 0.000000 -0.000000 90.000000 0.000000 -2.309062 0.000000 0.000000 2.309062 0.000000 0.000000 8.520406 0.000000 0.000000 1.905762 0.000000 -0.000000 -4.658285 0.000000 0.000000 -0.000000 0.000000 0.000000 8.520406 0.000000 0.000000 1.905762 0.000000 -0.000000 -4.658285 0.000000 0.000000 -0.000000 0.000000
-57.631881 43.844962 20.081682 172.686236 -20.363894 -1.648430 -0.491111 15.905737 3.148146 -0.084008 1.577366 0.385076 -0.154227 2.671531 0.617323 -0.494307 14.114144 3.232050 -0.520047 19.368394 -4.700271 0.519983 -5.133354 -4.913423 4.729427 4.681885 -8.768472 -2.410612 -9.746942 -0.339942 -136.667553 -82.746695 150.895284 -5.941754 5.372237 -37.116531 -7.101738 0.395759 -1.709176 8.680939 -8.135930 -0.651036 125.976205 -65.746636 -151.794390 22.439244 11.715436 47.352592 -4.846326 -70.830572 16.367499 -143.741830 64.988568 -142.156934 -9.959529 -26.552268 8.173820 0.154086 -0.828020 0.110964 3.921688 -58.740905 1.881790 175.826959 60.482844 176.233776 -2.079564 -40.349501 3.028136 0.014815 0.100257 0.019039
-57.634671 43.842195 20.077795 172.723240 -20.398201 -1.630283 -0.523893 15.919057 3.133352 -0.073467 1.560584 0.401699 -0.162460 2.676866 0.608482 -0.505901 14.100825 3.241584 -0.534339 19.521133 -4.603562 0.482224 -4.966387 -4.806767 4.713566 4.723082 -8.785056 -2.391847 -9.796388 -0.358970 -137.176169 -82.679839 151.406581 -5.923749 5.362971 -37.080174 -7.007358 0.445104 -1.716752 8.707576 -8.139651 -0.709736 125.832728 -65.730446 -151.734877 22.462945 11.650100 47.376134 -4.789829 -70.817590 16.294815 -143.770931 64.960888 -142.183536 -10.022206 -26.538258 8.183009 0.190314 -0.832860 0.120942 3.944748 -58.704953 1.835284 175.841109 60.485070 176.237376 -2.099406 -40.346597 3.050290 0.012454 0.100607 0.020897
-57.637935 43.839455 20.072300 172.776034 -20.446810 -1.613237 -0.544250 15.908325 3.162790 -0.098588 1.593849 0.370629 -0.161340 2.671203 0.618036 -0.526033 14.100278 3.244851 -0.546747 19.642990 -4.510997 0.447471 -4.833745 -4.704647 4.669384 4.765333 -8.756901 -2.339621 -9.865608 -0.434132 -137.739254 -82.613132 151.973928 -5.901828 5.351506 -37.046283 -6.948123 0.482563 -1.742250 8.776165 -8.138983 -0.744236 125.738992 -65.679560 -151.652115 22.453805 11.634452 47.329246 -4.745804 -70.780147 16.211560 -143.848101 64.948841 -142.260154 -10.091196 -26.549083 8.192607 0.222137 -0.831932 0.119224 3.953895 -58.654053 1.783588 175.857013 60.487776 176.241518 -2.118491 -40.343104 3.074196 0.013241 0.101154 0.019925
-57.647855 43.837281 20.063382 172.850221 -20.516608 -1.563093 -0.609181 15.944423 3.132059 -0.119934 1.619511 0.336984 -0.146396 2.649471 0.654838 -0.553538 14.111752 3.241900 -0.560007 19.732414 -4.424779 0.413421 -4.737173 -4.608854 4.641506 4.804993 -8.756641 -2.308195 -9.979840 -0.496156 -138.085079 -82.571611 152.320140 -5.874418 5.336769 -37.017371 -6.864839 0.526641 -1.770387 8.829539 -8.142185 -0.774099 125.735126 -65.640579 -151.653902 22.442870 11.616686 47.263673 -4.601552 -70.726350 16.001511 -143.960747 64.944558 -142.379152 -10.193795 -26.505295 8.204704 0.275348 -0.887799 0.142998 4.004200 -58.573748 1.649226 175.852911 60.498893 176.222239 -2.137484 -40.335667 3.091923 0.014787 0.101459 0.021732
-57.650166 43.832761 20.063209 172.880722 -20.545175 -1.552635 -0.634220 15.961368 3.129011 -0.111389 1.607706 0.354631 -0.159110 2.663735 0.639240 -0.562578 14.115261 3.269797 -0.576112 19.790864 -4.346507 0.378264 -4.675107 -4.520739 4.624426 4.825490 -8.780264 -2.301976 -10.071173 -0.540381 -138.483999 -82.522528 152.729018 -5.841372 5.318533 -36.991466 -6.764453 0.577586 -1.797081 8.870833 -8.147767 -0.805092 125.796026 -65.619061 -151.738784 22.417725 11.584252 47.200177 -4.579429 -70.712978 15.957500 -143.996138 64.931454 -142.426206 -10.175142 -26.501002 8.173531 0.260103 -0.900051 0.168987 4.005724 -58.546563 1.620074 175.860357 60.500917 176.221247 -2.135333 -40.338761 3.086445 0.007705 0.108967 0.027975
